PathFileType	4	(X/Y/Z)	C:\Users\86182\Documents\cortex\Trimmed_M3_L15.trc
DataRate	CameraRate	NumFrames	NumMarkers	Units	OrigDataRate	OrigDataStartFrame	OrigNumFrames
100.00	100.00	       112	2	mm	100.00	721	       901
Frame#	Time	gripper			box			
		X1	Y1	Z1	X2	Y2	Z2	

721	7.200	273.46866	149.79173	292.87006	274.36240	148.08363	157.23424	
722	7.210	273.45728	149.79660	292.87036	274.33618	148.06985	157.23257	
723	7.220	273.46866	149.79173	292.87006	274.35867	148.08168	157.23399	
724	7.230	273.46866	149.79173	292.87006	274.36868	148.09685	157.21019	
725	7.240	273.46866	149.79173	292.87006	274.37598	148.09673	157.22035	
726	7.250	273.46866	149.79173	292.87006	274.38248	148.09915	157.22321	
727	7.260	273.45889	149.79668	292.86914	274.39001	148.10312	157.22366	
728	7.270	273.46866	149.79173	292.87006	274.38666	148.10924	157.20398	
729	7.280	273.46866	149.79173	292.87006	274.37799	148.10219	157.19284	
730	7.290	273.46866	149.79173	292.87006	274.38266	148.10321	157.21346	
731	7.300	273.48322	149.79248	292.85931	274.39679	148.10965	157.21674	
732	7.310	273.46866	149.79173	292.87006	274.39847	148.10457	157.23158	
733	7.320	273.46866	149.79173	292.87006	274.38388	148.08424	157.23387	
734	7.330	273.47195	149.79190	292.86768	274.36636	148.08411	157.21597	
735	7.340	273.46866	149.79173	292.87006	274.37561	148.09148	157.23264	
736	7.350	273.46866	149.79173	292.87006	274.36270	148.08775	157.22444	
737	7.360	273.46866	149.79173	292.87006	274.38287	148.08684	157.23167	
738	7.370	273.46866	149.79173	292.87006	274.35962	148.07086	157.23390	
739	7.380	273.46866	149.79173	292.87006	274.40140	148.10910	157.22438	
740	7.390	273.46866	149.79173	292.87006	274.43390	148.13620	157.20171	
741	7.400	273.45270	149.79854	292.87048	274.47250	148.14702	157.22745	
742	7.410	273.44016	149.80542	292.86850	274.45184	148.13721	157.22362	
743	7.420	273.45728	149.79660	292.87036	274.35712	148.10356	157.17627	
744	7.430	273.46017	149.79996	292.86337	274.29813	148.06036	157.20313	
745	7.440	273.43018	149.79942	292.84671	274.31845	148.06842	157.21201	
746	7.450	273.43799	149.79994	292.86871	274.32452	148.07747	157.19798	
747	7.460	273.44366	149.80238	292.87070	274.41110	148.11691	157.21806	
748	7.470	273.46866	149.79173	292.87006	274.36920	148.09018	157.22728	
749	7.480	273.46411	149.79369	292.87018	274.30615	148.04976	157.24135	
750	7.490	273.46866	149.79173	292.87006	274.36221	148.05080	157.26430	
751	7.500	273.46866	149.79173	292.87006	274.37842	148.07922	157.23317	
752	7.510	273.46866	149.79173	292.87006	274.40164	148.10396	157.23741	
753	7.520	273.46866	149.79173	292.87006	274.43930	148.11569	157.25964	
754	7.530	273.46866	149.79173	292.87006	274.41693	148.11644	157.22737	
755	7.540	273.47000	149.79918	292.85806	274.44659	148.14264	157.20303	
756	7.550	273.48160	149.79239	292.86050	274.45239	148.15501	157.18040	
757	7.560	273.50281	149.79271	292.84601	274.38232	148.13496	157.13190	
758	7.570	273.46594	149.78828	292.81647	274.29495	148.08392	157.13922	
759	7.580	273.46643	149.79488	292.86215	274.34903	148.08549	157.21144	
760	7.590	273.46411	149.79369	292.87018	274.39401	148.11481	157.19933	
761	7.600	273.45728	149.79660	292.87036	274.40060	148.11166	157.21695	
762	7.610	273.45499	149.79756	292.87039	274.39648	148.10152	157.23640	
763	7.620	273.46866	149.79173	292.87006	274.38538	148.08984	157.21645	
764	7.630	273.45728	149.79660	292.87036	274.32553	148.06291	157.22388	
765	7.640	273.45044	149.79950	292.87051	274.32874	148.06596	157.23210	
766	7.650	273.46866	149.79173	292.87006	274.32874	148.06596	157.23210	
767	7.660	273.46640	149.79271	292.87012	274.34869	148.08139	157.22115	
768	7.670	273.45605	149.79544	292.86816	274.34061	148.08008	157.21335	
769	7.680	273.45215	149.80121	292.86682	274.37338	148.10030	157.20804	
770	7.690	273.50571	149.79482	292.84094	274.41608	148.13162	157.18874	
771	7.700	273.47247	149.79709	292.85953	274.38055	148.11479	157.18201	
772	7.710	273.50461	149.79153	292.84656	274.39270	148.12219	157.18028	
773	7.720	273.47675	149.79214	292.86411	274.41318	148.12717	157.19580	
774	7.730	273.46118	149.79570	292.86911	274.43915	148.13437	157.21335	
775	7.740	273.46866	149.79173	292.87006	274.47440	148.15883	157.20091	
776	7.750	273.45270	149.79854	292.87048	274.41446	148.11928	157.21700	
777	7.760	273.45270	149.79854	292.87048	274.39783	148.10194	157.23718	
778	7.770	273.45596	149.79869	292.86807	274.31860	148.06345	157.22412	
779	7.780	273.46866	149.79173	292.87006	274.31622	148.05794	157.23488	
780	7.790	273.44366	149.80238	292.87070	274.30795	148.06662	157.20151	
781	7.800	273.43686	149.80527	292.87088	274.32687	148.06589	157.22952	
782	7.810	273.42117	149.81195	292.87128	274.34366	148.07378	157.23305	
783	7.820	273.45499	149.79756	292.87039	274.37219	148.09473	157.22012	
784	7.830	273.44818	149.80046	292.87057	274.37540	148.10332	157.20331	
785	7.840	273.46411	149.79369	292.87018	274.41318	148.12717	157.19580	
786	7.850	273.44437	149.80667	292.86380	274.38525	148.09962	157.22583	
787	7.860	273.46866	149.79173	292.87006	274.36969	148.09834	157.20781	
788	7.870	273.43686	149.80527	292.87088	274.40561	148.12317	157.19539	
789	7.880	273.46915	149.80145	292.85519	274.41422	148.13258	157.18384	
790	7.890	273.47748	149.79442	292.86020	274.41318	148.12717	157.19580	
791	7.900	273.47891	149.79903	292.85236	274.36340	148.08516	157.23184	
792	7.910	273.45889	149.79668	292.86914	274.39566	148.10408	157.22894	
793	7.920	273.45886	149.80203	292.86115	274.37317	148.09624	157.21776	
794	7.930	273.44589	149.80144	292.87064	274.36340	148.08516	157.23184	
795	7.940	273.45953	149.79562	292.87030	274.37958	148.09200	157.23691	
796	7.950	273.46866	149.79173	292.87006	274.37646	148.08781	157.24301	
797	7.960	273.44138	149.80336	292.87076	274.35114	148.07771	157.23354	
798	7.970	273.46182	149.79466	292.87024	274.39856	148.10197	157.23811	
799	7.980	273.45044	149.79950	292.87051	274.39017	148.09462	157.24463	
800	7.990	273.44916	149.80159	292.86826	274.38547	148.10370	157.21605	
801	8.000	273.44562	149.80461	292.86606	274.35376	148.08896	157.20930	
802	8.010	273.42218	149.81305	292.86896	274.37793	148.09973	157.21561	
803	8.020	273.45596	149.80928	292.85223	274.34113	148.09187	157.18427	
804	8.030	273.44983	149.80586	292.86139	274.40170	148.12090	157.19499	
805	8.040	273.45663	149.80382	292.85999	274.35257	148.09991	157.18033	
806	8.050	273.44800	149.80608	292.86227	274.32654	148.08047	157.19331	
807	8.060	273.47931	149.79337	292.86057	274.40326	148.09825	157.21999	
808	8.070	273.46411	149.79369	292.87018	274.39096	148.09799	157.23763	
809	8.080	273.48160	149.79239	292.86050	274.34741	148.07576	157.23328	
810	8.090	273.46640	149.79271	292.87012	274.35489	148.07968	157.23376	
811	8.100	273.47354	149.79198	292.86649	274.31314	148.06927	157.20169	
812	8.110	273.47195	149.79190	292.86768	274.33893	148.08116	157.20842	
813	8.120	273.45499	149.80293	292.86240	274.33240	148.07231	157.21475	
814	8.130	273.49280	149.79297	292.85223	274.36081	148.08954	157.21696	
815	8.140	273.48935	149.79884	292.84573	274.32358	148.08549	157.17593	
816	8.150	273.46762	149.79604	292.86432	274.31607	148.07869	157.18277	
817	8.160	273.47998	149.79231	292.86169	274.32141	148.07474	157.20007	
818	8.170	273.48434	149.79564	292.85382	274.31610	148.09406	157.14369	
819	8.180	273.47720	149.78709	292.85266	274.31555	148.07642	157.18733	
820	8.190	273.46829	149.79498	292.86548	274.32758	148.08197	157.19099	
821	8.200	273.46298	149.78929	292.86810	274.32281	148.08032	157.18817	
822	8.210	273.45889	149.79668	292.86914	274.33420	148.07768	157.21056	
823	8.220	273.45953	149.79562	292.87030	274.33932	148.09000	157.18665	
824	8.230	273.46100	149.79245	292.86469	274.32080	148.07733	157.19284	
825	8.240	273.46866	149.79173	292.87006	274.29825	148.06332	157.19580	
826	8.250	273.46793	149.79901	292.85965	274.31497	148.07419	157.19235	
827	8.260	273.45886	149.80203	292.86115	274.31470	148.06828	157.20688	
828	8.270	273.48160	149.79239	292.86050	274.36969	148.09834	157.20781	
829	8.280	273.46866	149.79173	292.87006	274.33752	148.07735	157.21553	
830	8.290	273.47842	149.79222	292.86288	274.32016	148.07211	157.20474	
831	8.300	273.47101	149.79160	292.86874	274.36145	148.09879	157.19518	
832	8.310	273.48593	149.79587	292.85245	274.38092	148.10609	157.20357	
